<?xml version="1.0" encoding="utf-8"?>
<!-- Generator: Adobe Illustrator 23.0.2, SVG Export Plug-In . SVG Version: 6.00 Build 0)  -->
<svg version="1.1" id="Capa_1" xmlns="http://www.w3.org/2000/svg" xmlns:xlink="http://www.w3.org/1999/xlink" x="0px" y="0px"
	 viewBox="0 0 500 500" style="enable-background:new 0 0 500 500;" xml:space="preserve">
<style type="text/css">
	.st0{display:none;fill:#FF00B7;}
	.st1{fill:#FFFFFF;}
	.st2{clip-path:url(#SVGID_2_);}
	.st3{fill:#0CC0DF;}
	.st4{clip-path:url(#SVGID_4_);}
	.st5{fill:#0097B2;}
	.st6{clip-path:url(#SVGID_8_);}
	.st7{fill:#545454;}
</style>
<rect class="st0" width="500" height="500"/>
<g>
	<circle class="st1" cx="104.3" cy="211.9" r="64.5"/>
	<g>
		<g>
			<defs>
				<rect id="SVGID_1_" x="40.8" y="162.3" width="80.6" height="60"/>
			</defs>
			<clipPath id="SVGID_2_">
				<use xlink:href="#SVGID_1_"  style="overflow:visible;"/>
			</clipPath>
			<g class="st2">
				<path class="st3" d="M95.9,217.5c0,0-18.3-9-24.9-13.5c-1.1-0.8,1.8-2.1,5-2.5c6.5-0.5,44.3,4.4,44.3,4.4l0.4-0.2
					c-5.6-1.1-11-2.7-16.3-4.8c-6.2-2.5-12.1-5.7-17.6-9.5c-10.8-7.5-19.9-17.4-26.5-28.6c-9.7,8.7-17,20.7-19.6,35.7
					C40.8,233.6,95.9,217.5,95.9,217.5z"/>
			</g>
		</g>
		<g>
			<defs>
				<rect id="SVGID_3_" x="40.8" y="162.3" width="80.6" height="60"/>
			</defs>
			<clipPath id="SVGID_4_">
				<use xlink:href="#SVGID_3_"  style="overflow:visible;"/>
			</clipPath>
			<g class="st4">
				<path class="st5" d="M95.9,217.5c0,0-18.3-9-24.9-13.5c-1.1-0.8,1.8-2.1,5-2.5c6.5-0.5,44.3,4.4,44.3,4.4l0.4-0.2
					c-5.6-1.1-11-2.7-16.3-4.8c-6.2-2.5-12.1-5.7-17.6-9.5c-10.8-7.5-19.9-17.4-26.5-28.6c-9.7,8.7-17,20.7-19.6,35.7
					C40.8,233.6,95.9,217.5,95.9,217.5z"/>
			</g>
		</g>
		<g>
			<defs>
				<rect id="SVGID_5_" x="40.8" y="162.3" width="80.6" height="60"/>
			</defs>
			<clipPath id="SVGID_6_">
				<use xlink:href="#SVGID_5_"  style="overflow:visible;"/>
			</clipPath>
		</g>
	</g>
	<g>
		<defs>
			<rect id="SVGID_7_" x="40.8" y="201" width="129" height="59"/>
		</defs>
		<clipPath id="SVGID_8_">
			<use xlink:href="#SVGID_7_"  style="overflow:visible;"/>
		</clipPath>
		<g class="st6">
			<path class="st5" d="M153,206.1l-0.8,0.1c-0.5,0.9-1.5,1.9-3.3,2.7c0,0-31.8,15.6-49.1,20.4c-28.8,8-47.7,7.9-58.6-10.1
				c1.4,12,5,22.2,10.4,30.6c1.5-0.8,3.3-1.3,5.1-1.3c0-0.3-0.1-0.5-0.1-0.8c0-3.1,2.5-5.5,5.5-5.5c1.7,0,3.1,0.7,4.2,1.9
				c3.8-3.4,8.8-5.5,14.3-5.5c5.1,0,9.8,1.8,13.4,4.8c1.6-0.9,3.5-1.4,5.5-1.4c4.5,0,8.5,2.7,10.3,6.5c0.8-0.4,1.7-0.7,2.7-0.7
				c3.1,0,5.5,2.5,5.5,5.5c0,0.8-0.2,1.6-0.5,2.2c2.7,0.7,5.3,1.9,7.5,3.5c0.5-5.8,5.4-10.5,11.3-10.5c0.3,0,0.7,0,1,0
				c1-1.7,2.8-2.8,4.8-2.8c3.1,0,5.5,2.5,5.5,5.5c0,1.3-0.5,2.5-1.2,3.5c0.8,1.5,1.2,3.3,1.2,5.1c13.5-11.8,22-29.2,22-48.5
				c0-3.3-0.2-6.5-0.7-9.6C163.9,203.7,158.5,205.2,153,206.1z"/>
		</g>
	</g>
	<path class="st3" d="M105.3,146.9C90.1,146,74.4,151,62.2,161c13,22.5,35.7,38.6,62.3,42.8l12.7-6.1c1.7-0.8,4.7-0.6,7.5,0.1
		l-4.1,4.5l6.4-3.8c2.4,0.9,4.4,2.3,5.1,3.8c0,0,0.3,0.5,0.5,1.4c5.6-0.9,11-2.4,16.1-4.3C163,169.8,136.8,148.6,105.3,146.9z"/>
</g>
<g>
	<g transform="translate(130.927592, 199.056438)">
		<g>
			<path d="M58.2,66.9c-2.1,0-5.7-0.2-10.8-0.6V34.6c5.1-0.4,8.8-0.6,11.1-0.6c2.3,0,4.2,0.3,5.8,0.9c1.6,0.6,2.9,1.4,3.8,2.3
				c0.9,0.9,1.7,2.1,2.3,3.6c1,2.4,1.5,5.5,1.5,9.3c0,6-1.2,10.3-3.6,13C65.9,65.6,62.5,66.9,58.2,66.9z M54.5,60.6
				c1.3,0.2,2.7,0.2,4.3,0.2c1.6,0,2.8-0.3,3.4-0.9c1.4-1.1,2.1-4.4,2.1-9.7c0-5.3-0.6-8.5-1.9-9.5c-0.7-0.5-1.8-0.8-3.5-0.8
				l-4.4,0.3V60.6z"/>
		</g>
	</g>
</g>
<g>
	<g transform="translate(155.486658, 199.056438)">
		<g>
			<path d="M79.6,44.5c0,4.8-2.2,8-6.5,9.5v0.3l7.8,12h-8.3L66.8,55l-4.1-0.1v11.4h-7.1l0.2-14.8l-0.2-17c7.2-0.4,11.2-0.6,12.1-0.6
				C75.6,33.9,79.6,37.5,79.6,44.5z M62.7,49.1c2.1,0.2,3.9,0.3,5.4,0.3c1.6,0,2.6-0.4,3.2-1.1c0.6-0.8,0.9-2.2,0.9-4.3
				c0-2.1-0.4-3.4-1.1-3.9c-0.5-0.4-1.7-0.5-3.6-0.5c-1.8,0-3.5,0.1-4.8,0.3V49.1z"/>
		</g>
	</g>
</g>
<g>
	<g transform="translate(180.793026, 199.056438)">
		<g>
			<path d="M64,66.4V34.5h19.1v6.1l-12-0.1l-0.2,6.8H82v6H70.9l0.2,7.1l12-0.1v6.1H64z"/>
		</g>
	</g>
</g>
<g>
	<g transform="translate(201.207997, 199.056438)">
		<g>
			<path d="M73.8,66.4h-7.2l9.1-31.8h8.5l9.1,31.8h-7.2l-1.8-7.1h-8.7L73.8,66.4z M82.9,53.3L80.1,41h-0.3l-2.9,12.3H82.9z"/>
		</g>
	</g>
</g>
<g>
	<g transform="translate(222.37027, 199.056438)">
		<g>
			<path d="M96.8,59h-7.1l-4.9-16.5h-0.3l0.3,23.9h-7.1l1.1-31.8h9.1l5.2,17.8h0.3l5.1-17.8h9.1l1.2,31.8h-7.1l0.2-23.9h-0.3
				L96.8,59z"/>
		</g>
	</g>
</g>
<g>
	<g transform="translate(252.703896, 199.056438)">
	</g>
</g>
<g>
	<g transform="translate(262.554827, 199.056438)">
		<g>
			<path d="M86.8,34.5h24.8v6.1l-9-0.1l0.1,25.8h-7.1l0.1-25.8l-8.9,0.1V34.5z"/>
		</g>
	</g>
</g>
<g>
	<g transform="translate(281.780911, 199.056438)">
		<g>
			<path d="M121.7,44.5c0,4.8-2.2,8-6.5,9.5v0.3l7.8,12h-8.3L108.9,55l-4.1-0.1v11.4h-7.1l0.2-14.8l-0.2-17
				c7.2-0.4,11.2-0.6,12.1-0.6C117.7,33.9,121.7,37.5,121.7,44.5z M104.8,49.1c2.1,0.2,3.9,0.3,5.4,0.3c1.6,0,2.6-0.4,3.2-1.1
				c0.6-0.8,0.9-2.2,0.9-4.3c0-2.1-0.4-3.4-1.1-3.9c-0.5-0.4-1.7-0.5-3.6-0.5c-1.8,0-3.5,0.1-4.8,0.3V49.1z"/>
		</g>
	</g>
</g>
<g>
	<g transform="translate(307.087286, 199.056438)">
		<g>
			<path d="M113.1,48.7l0.1,17.7h-7.2l0.2-14.7l-0.2-17.2h7.2L113.1,48.7z"/>
		</g>
	</g>
</g>
<g>
	<g transform="translate(319.791516, 199.056438)">
		<g>
			<path d="M110.3,34.6c4.9-0.4,9-0.6,12.3-0.6c3.4,0,5.9,0.9,7.7,2.8c1.8,1.9,2.7,4.7,2.7,8.4c0,4.5-1.2,7.6-3.6,9.4
				c-2.1,1.5-4.6,2.3-7.8,2.3l-4.3-0.1v9.7h-7.1l0.2-14.9L110.3,34.6z M124.7,40.3c-0.4-0.4-1.4-0.6-3-0.6c-1.6,0-3,0.1-4.3,0.2
				v10.6c1.3,0.2,2.7,0.3,4.2,0.3c1.5,0,2.6-0.3,3.2-0.8c0.6-0.5,0.9-2.1,0.9-4.8C125.7,42.5,125.4,40.9,124.7,40.3z"/>
		</g>
	</g>
</g>
<g>
	<g transform="translate(161.580703, 217.455902)">
		<g>
			<path class="st7" d="M60.7,60.6v11.9h-1.8V60.6h-4.6v-1.5h11v1.5H60.7z"/>
		</g>
	</g>
</g>
<g>
	<g transform="translate(171.202335, 217.455902)">
		<g>
			<path class="st7" d="M68.1,72.5l-3.5-5.5h-4.2v5.5h-1.8V59.1h6.3c1.5,0,2.7,0.3,3.5,1c0.8,0.7,1.2,1.6,1.2,2.8
				c0,1-0.3,1.8-0.9,2.5c-0.6,0.7-1.4,1.1-2.4,1.3l3.8,5.8H68.1z M67.8,63c0-0.8-0.3-1.4-0.8-1.8c-0.5-0.4-1.3-0.6-2.3-0.6h-4.3v4.9
				h4.4c1,0,1.7-0.2,2.2-0.7C67.6,64.4,67.8,63.8,67.8,63z"/>
		</g>
	</g>
</g>
<g>
	<g transform="translate(182.44487, 217.455902)">
		<g>
			<path class="st7" d="M71.9,72.5l-1.5-3.9h-6.1l-1.5,3.9h-1.9l5.4-13.4h2.1l5.4,13.4H71.9z M67.3,60.5l-0.1,0.3
				c-0.2,0.5-0.4,1.2-0.7,2l-1.7,4.4h5l-1.7-4.4c-0.2-0.4-0.4-0.9-0.5-1.5L67.3,60.5z"/>
		</g>
	</g>
</g>
<g>
	<g transform="translate(192.884065, 217.455902)">
		<g>
			<path class="st7" d="M71.7,72.5h-1.9l-5.5-13.4h1.9l3.7,9.4l0.8,2.4l0.8-2.4l3.7-9.4h1.9L71.7,72.5z"/>
		</g>
	</g>
</g>
<g>
	<g transform="translate(203.323256, 217.455902)">
		<g>
			<path class="st7" d="M69.4,72.5V59.1h10.1v1.5h-8.3v4.3h7.8v1.5h-7.8V71h8.7v1.5H69.4z"/>
		</g>
	</g>
</g>
<g>
	<g transform="translate(213.762448, 217.455902)">
		<g>
			<path class="st7" d="M72.8,72.5V59.1h1.8V71h6.8v1.5H72.8z"/>
		</g>
	</g>
</g>
<g>
	<g transform="translate(222.587844, 217.455902)">
	</g>
</g>
<g>
	<g transform="translate(227.360982, 217.455902)">
		<g>
			<path class="st7" d="M86.8,72.5l-1.5-3.9h-6.1l-1.5,3.9h-1.9l5.4-13.4h2.1l5.4,13.4H86.8z M82.3,60.5l-0.1,0.3
				c-0.2,0.5-0.4,1.2-0.7,2l-1.7,4.4h5l-1.7-4.4c-0.2-0.4-0.4-0.9-0.5-1.5L82.3,60.5z"/>
		</g>
	</g>
</g>
<g>
	<g transform="translate(237.800173, 217.455902)">
		<g>
			<path class="st7" d="M80.2,65.7c0-2.2,0.6-3.8,1.7-5c1.2-1.2,2.8-1.8,4.9-1.8c1.5,0,2.7,0.3,3.6,0.8c0.9,0.5,1.6,1.3,2.1,2.4
				l-1.7,0.5c-0.4-0.8-0.9-1.3-1.6-1.7c-0.7-0.3-1.5-0.5-2.5-0.5c-1.5,0-2.7,0.5-3.5,1.4c-0.8,0.9-1.2,2.2-1.2,3.9
				c0,1.7,0.4,3,1.3,4c0.9,1,2.1,1.5,3.6,1.5c0.9,0,1.7-0.1,2.4-0.4c0.8-0.3,1.4-0.6,1.8-1.1v-2.4h-4v-1.5h5.6v4.6
				c-0.7,0.7-1.6,1.3-2.6,1.7c-1,0.4-2.1,0.6-3.3,0.6c-1.4,0-2.6-0.3-3.6-0.8c-1-0.6-1.8-1.4-2.3-2.4C80.5,68.4,80.2,67.2,80.2,65.7
				z"/>
		</g>
	</g>
</g>
<g>
	<g transform="translate(249.853159, 217.455902)">
		<g>
			<path class="st7" d="M84.9,72.5V59.1H95v1.5h-8.3v4.3h7.8v1.5h-7.8V71h8.7v1.5H84.9z"/>
		</g>
	</g>
</g>
<g>
	<g transform="translate(260.29235, 217.455902)">
		<g>
			<path class="st7" d="M97,72.5l-7.1-11.4l0.1,0.9l0,1.6v8.9h-1.6V59.1h2.1l7.2,11.5c-0.1-1.3-0.1-2.2-0.1-2.7v-8.8h1.6v13.4H97z"
				/>
		</g>
	</g>
</g>
<g>
	<g transform="translate(271.534884, 217.455902)">
		<g>
			<path class="st7" d="M98,60.4c-1.5,0-2.6,0.5-3.4,1.4c-0.8,0.9-1.2,2.2-1.2,3.9c0,1.6,0.4,3,1.3,4c0.9,1,2,1.5,3.5,1.5
				c1.9,0,3.3-0.9,4.2-2.8l1.5,0.8c-0.6,1.2-1.3,2-2.3,2.6c-1,0.6-2.1,0.9-3.5,0.9c-1.3,0-2.5-0.3-3.5-0.8c-1-0.6-1.7-1.4-2.3-2.4
				c-0.5-1-0.8-2.3-0.8-3.7c0-2.1,0.6-3.8,1.7-5c1.2-1.2,2.8-1.8,4.8-1.8c1.4,0,2.6,0.3,3.5,0.8c1,0.6,1.7,1.4,2.1,2.5l-1.7,0.6
				c-0.3-0.8-0.8-1.4-1.5-1.8C99.8,60.6,99,60.4,98,60.4z"/>
		</g>
	</g>
</g>
<g>
	<g transform="translate(282.777425, 217.455902)">
		<g>
			<path class="st7" d="M101.6,66.9v5.5h-1.8v-5.5l-5.1-7.8h2l4.1,6.4l4.1-6.4h2L101.6,66.9z"/>
		</g>
	</g>
</g>
</svg>
