<svg xmlns="http://www.w3.org/2000/svg" xmlns:xlink="http://www.w3.org/1999/xlink" width="500" zoomAndPan="magnify" viewBox="0 0 375 374.999991" height="500" preserveAspectRatio="xMidYMid meet" version="1.0"><defs><g/><clipPath id="a75a605c25"><path d="M 127.339844 118 L 193 118 L 193 166 L 127.339844 166 Z M 127.339844 118 " clip-rule="nonzero"/></clipPath><clipPath id="fc19d20b31"><path d="M 127.339844 149 L 232.339844 149 L 232.339844 196.910156 L 127.339844 196.910156 Z M 127.339844 149 " clip-rule="nonzero"/></clipPath></defs><rect x="-37.5" width="450" fill="#ffffff" y="-37.499999" height="449.999989" fill-opacity="1"/><rect x="-37.5" width="450" fill="#ffffff" y="-37.499999" height="449.999989" fill-opacity="1"/><g clip-path="url(#a75a605c25)"><path fill="#0097b2" d="M 172.164062 162.683594 C 172.164062 162.683594 157.339844 155.371094 151.953125 151.6875 C 151.023438 151.050781 153.421875 150.003906 155.980469 149.644531 C 161.289062 149.257812 191.9375 153.222656 191.9375 153.222656 L 192.296875 153.050781 C 187.777344 152.164062 183.339844 150.851562 179.074219 149.128906 C 174.054688 147.105469 169.242188 144.507812 164.78125 141.410156 C 156.042969 135.351562 148.597656 127.308594 143.230469 118.144531 C 135.328125 125.171875 129.433594 134.949219 127.339844 147.144531 C 127.339844 175.820312 172.164062 162.683594 172.164062 162.683594 Z M 172.164062 162.683594 " fill-opacity="1" fill-rule="nonzero"/></g><g clip-path="url(#fc19d20b31)"><path fill="#0097b2" d="M 218.503906 153.429688 L 217.871094 153.535156 C 217.46875 154.296875 216.675781 155.070312 215.199219 155.710938 C 215.199219 155.710938 189.351562 168.386719 175.296875 172.300781 C 151.867188 178.828125 136.558594 178.703125 127.714844 164.132812 C 128.824219 173.867188 131.746094 182.195312 136.195312 188.984375 C 137.449219 188.335938 138.867188 187.964844 140.375 187.953125 C 140.34375 187.742188 140.328125 187.523438 140.328125 187.304688 C 140.328125 184.816406 142.34375 182.796875 144.832031 182.796875 C 146.179688 182.796875 147.386719 183.386719 148.210938 184.324219 C 151.285156 181.550781 155.355469 179.859375 159.820312 179.859375 C 163.960938 179.859375 167.761719 181.316406 170.742188 183.738281 C 172.074219 182.996094 173.605469 182.570312 175.234375 182.570312 C 178.925781 182.570312 182.109375 184.734375 183.589844 187.863281 C 184.234375 187.503906 184.976562 187.300781 185.765625 187.300781 C 188.253906 187.300781 190.273438 189.320312 190.273438 191.808594 C 190.273438 192.457031 190.136719 193.074219 189.886719 193.632812 C 192.105469 194.171875 194.15625 195.140625 195.945312 196.441406 C 196.324219 191.691406 200.300781 187.949219 205.148438 187.949219 C 205.425781 187.949219 205.699219 187.964844 205.96875 187.988281 C 206.742188 186.628906 208.207031 185.714844 209.878906 185.714844 C 212.367188 185.714844 214.386719 187.734375 214.386719 190.222656 C 214.386719 191.285156 214.019531 192.261719 213.398438 193.035156 C 214.03125 194.285156 214.386719 195.695312 214.386719 197.1875 C 225.320312 187.578125 232.226562 173.488281 232.226562 157.785156 C 232.226562 155.113281 232.027344 152.5 231.640625 149.960938 C 227.386719 151.523438 222.96875 152.6875 218.503906 153.429688 Z M 218.503906 153.429688 " fill-opacity="1" fill-rule="nonzero"/></g><path fill="#0cc0df" d="M 179.78125 105.335938 C 167.457031 104.65625 154.703125 108.6875 144.761719 116.835938 C 155.316406 135.078125 173.730469 148.199219 195.371094 151.578125 L 205.710938 146.628906 C 207.121094 146.019531 209.507812 146.113281 211.808594 146.691406 L 208.511719 150.34375 L 213.671875 147.277344 C 215.613281 148.023438 217.246094 149.105469 217.796875 150.371094 C 217.796875 150.371094 218.0625 150.8125 218.179688 151.472656 C 222.710938 150.722656 227.097656 149.539062 231.300781 147.976562 C 226.675781 123.996094 205.335938 106.742188 179.78125 105.335938 Z M 179.78125 105.335938 " fill-opacity="1" fill-rule="nonzero"/><g fill="#000000" fill-opacity="1"><g transform="translate(73.775488, 239.715137)"><g><path d="M 11.84375 0.484375 C 10.175781 0.484375 7.242188 0.320312 3.046875 0 L 3.046875 -25.828125 C 7.222656 -26.171875 10.234375 -26.34375 12.078125 -26.34375 C 13.929688 -26.34375 15.503906 -26.101562 16.796875 -25.625 C 18.085938 -25.144531 19.113281 -24.519531 19.875 -23.75 C 20.632812 -22.976562 21.242188 -22.003906 21.703125 -20.828125 C 22.515625 -18.867188 22.921875 -16.34375 22.921875 -13.25 C 22.921875 -8.363281 21.953125 -4.851562 20.015625 -2.71875 C 18.078125 -0.582031 15.351562 0.484375 11.84375 0.484375 Z M 8.796875 -4.671875 C 9.828125 -4.546875 11.003906 -4.484375 12.328125 -4.484375 C 13.648438 -4.484375 14.570312 -4.71875 15.09375 -5.1875 C 16.21875 -6.125 16.78125 -8.757812 16.78125 -13.09375 C 16.78125 -17.4375 16.253906 -20.003906 15.203125 -20.796875 C 14.660156 -21.210938 13.710938 -21.421875 12.359375 -21.421875 L 8.796875 -21.1875 Z M 8.796875 -4.671875 "/></g></g></g><g fill="#000000" fill-opacity="1"><g transform="translate(100.378428, 239.715137)"><g><path d="M 22.5625 -17.734375 C 22.5625 -13.835938 20.804688 -11.265625 17.296875 -10.015625 L 17.296875 -9.78125 L 23.59375 0 L 16.890625 0 L 12.140625 -9.203125 L 8.828125 -9.265625 L 8.828125 0 L 3.046875 0 L 3.203125 -12 L 3.046875 -25.828125 C 8.890625 -26.171875 12.15625 -26.34375 12.84375 -26.34375 C 19.320312 -26.34375 22.5625 -23.472656 22.5625 -17.734375 Z M 8.828125 -14.0625 C 10.492188 -13.882812 11.957031 -13.796875 13.21875 -13.796875 C 14.488281 -13.796875 15.367188 -14.097656 15.859375 -14.703125 C 16.347656 -15.304688 16.59375 -16.457031 16.59375 -18.15625 C 16.59375 -19.863281 16.285156 -20.914062 15.671875 -21.3125 C 15.234375 -21.601562 14.257812 -21.75 12.75 -21.75 C 11.238281 -21.75 9.929688 -21.675781 8.828125 -21.53125 Z M 8.828125 -14.0625 "/></g></g></g><g fill="#000000" fill-opacity="1"><g transform="translate(127.790862, 239.715137)"><g><path d="M 3.046875 0 L 3.046875 -25.875 L 18.578125 -25.875 L 18.578125 -20.9375 L 8.796875 -21.046875 L 8.640625 -15.53125 L 17.65625 -15.53125 L 17.65625 -10.671875 L 8.640625 -10.671875 L 8.796875 -4.859375 L 18.578125 -4.9375 L 18.578125 0 Z M 3.046875 0 "/></g></g></g><g fill="#000000" fill-opacity="1"><g transform="translate(149.904824, 239.715137)"><g><path d="M 5.453125 0 L -0.40625 0 L 6.984375 -25.875 L 13.90625 -25.875 L 21.3125 0 L 15.453125 0 L 13.984375 -5.734375 L 6.921875 -5.734375 Z M 12.875 -10.59375 L 10.5625 -20.5625 L 10.34375 -20.5625 L 8.015625 -10.59375 Z M 12.875 -10.59375 "/></g></g></g><g fill="#000000" fill-opacity="1"><g transform="translate(172.82828, 239.715137)"><g><path d="M 18.4375 -5.96875 L 12.625 -5.96875 L 8.640625 -19.390625 L 8.421875 -19.390625 L 8.640625 0 L 2.90625 0 L 3.796875 -25.875 L 11.1875 -25.875 L 15.375 -11.40625 L 15.609375 -11.40625 L 19.765625 -25.875 L 27.125 -25.875 L 28.109375 0 L 22.375 0 L 22.515625 -19.390625 L 22.296875 -19.390625 Z M 18.4375 -5.96875 "/></g></g></g><g fill="#000000" fill-opacity="1"><g transform="translate(205.686355, 239.715137)"><g/></g></g><g fill="#000000" fill-opacity="1"><g transform="translate(216.357108, 239.715137)"><g><path d="M -0.59375 -25.875 L 19.546875 -25.875 L 19.546875 -20.859375 L 12.1875 -20.96875 L 12.296875 0 L 6.515625 0 L 6.625 -20.96875 L -0.59375 -20.859375 Z M -0.59375 -25.875 "/></g></g></g><g fill="#000000" fill-opacity="1"><g transform="translate(237.18324, 239.715137)"><g><path d="M 22.5625 -17.734375 C 22.5625 -13.835938 20.804688 -11.265625 17.296875 -10.015625 L 17.296875 -9.78125 L 23.59375 0 L 16.890625 0 L 12.140625 -9.203125 L 8.828125 -9.265625 L 8.828125 0 L 3.046875 0 L 3.203125 -12 L 3.046875 -25.828125 C 8.890625 -26.171875 12.15625 -26.34375 12.84375 -26.34375 C 19.320312 -26.34375 22.5625 -23.472656 22.5625 -17.734375 Z M 8.828125 -14.0625 C 10.492188 -13.882812 11.957031 -13.796875 13.21875 -13.796875 C 14.488281 -13.796875 15.367188 -14.097656 15.859375 -14.703125 C 16.347656 -15.304688 16.59375 -16.457031 16.59375 -18.15625 C 16.59375 -19.863281 16.285156 -20.914062 15.671875 -21.3125 C 15.234375 -21.601562 14.257812 -21.75 12.75 -21.75 C 11.238281 -21.75 9.929688 -21.675781 8.828125 -21.53125 Z M 8.828125 -14.0625 "/></g></g></g><g fill="#000000" fill-opacity="1"><g transform="translate(264.595683, 239.715137)"><g><path d="M 8.75 -14.34375 L 8.875 0 L 3.046875 0 L 3.203125 -11.921875 L 3.046875 -25.875 L 8.875 -25.875 Z M 8.75 -14.34375 "/></g></g></g><g fill="#000000" fill-opacity="1"><g transform="translate(278.357194, 239.715137)"><g><path d="M 3.046875 -25.828125 C 7.003906 -26.171875 10.34375 -26.34375 13.0625 -26.34375 C 15.78125 -26.34375 17.863281 -25.578125 19.3125 -24.046875 C 20.757812 -22.515625 21.484375 -20.25 21.484375 -17.25 C 21.484375 -13.625 20.515625 -11.085938 18.578125 -9.640625 C 16.910156 -8.410156 14.816406 -7.796875 12.296875 -7.796875 L 8.828125 -7.90625 L 8.828125 0 L 3.046875 0 L 3.203125 -12.0625 Z M 14.71875 -21.15625 C 14.375 -21.5 13.5625 -21.671875 12.28125 -21.671875 C 11.007812 -21.671875 9.859375 -21.609375 8.828125 -21.484375 L 8.828125 -12.921875 C 9.859375 -12.742188 11 -12.65625 12.25 -12.65625 C 13.5 -12.65625 14.359375 -12.867188 14.828125 -13.296875 C 15.296875 -13.734375 15.53125 -15.03125 15.53125 -17.1875 C 15.53125 -19.34375 15.257812 -20.664062 14.71875 -21.15625 Z M 14.71875 -21.15625 "/></g></g></g><g fill="#545454" fill-opacity="1"><g transform="translate(108.86057, 265.015198)"><g><path d="M 5.546875 -9.640625 L 5.546875 0 L 4.078125 0 L 4.078125 -9.640625 L 0.359375 -9.640625 L 0.359375 -10.84375 L 9.265625 -10.84375 L 9.265625 -9.640625 Z M 5.546875 -9.640625 "/></g></g></g><g fill="#545454" fill-opacity="1"><g transform="translate(119.282941, 265.015198)"><g><path d="M 8.953125 0 L 6.140625 -4.5 L 2.765625 -4.5 L 2.765625 0 L 1.296875 0 L 1.296875 -10.84375 L 6.390625 -10.84375 C 7.617188 -10.84375 8.5625 -10.566406 9.21875 -10.015625 C 9.882812 -9.472656 10.21875 -8.71875 10.21875 -7.75 C 10.21875 -6.9375 9.984375 -6.253906 9.515625 -5.703125 C 9.046875 -5.160156 8.398438 -4.816406 7.578125 -4.671875 L 10.65625 0 Z M 8.75 -7.734375 C 8.75 -8.359375 8.53125 -8.835938 8.09375 -9.171875 C 7.664062 -9.503906 7.050781 -9.671875 6.25 -9.671875 L 2.765625 -9.671875 L 2.765625 -5.671875 L 6.3125 -5.671875 C 7.082031 -5.671875 7.679688 -5.847656 8.109375 -6.203125 C 8.535156 -6.566406 8.75 -7.078125 8.75 -7.734375 Z M 8.75 -7.734375 "/></g></g></g><g fill="#545454" fill-opacity="1"><g transform="translate(131.461112, 265.015198)"><g><path d="M 8.984375 0 L 7.75 -3.171875 L 2.796875 -3.171875 L 1.5625 0 L 0.03125 0 L 4.453125 -10.84375 L 6.125 -10.84375 L 10.484375 0 Z M 5.265625 -9.734375 L 5.203125 -9.515625 C 5.078125 -9.097656 4.890625 -8.554688 4.640625 -7.890625 L 3.25 -4.3125 L 7.3125 -4.3125 L 5.90625 -7.890625 C 5.769531 -8.242188 5.628906 -8.644531 5.484375 -9.09375 Z M 5.265625 -9.734375 "/></g></g></g><g fill="#545454" fill-opacity="1"><g transform="translate(142.769085, 265.015198)"><g><path d="M 6.015625 0 L 4.5 0 L 0.0625 -10.84375 L 1.609375 -10.84375 L 4.625 -3.203125 L 5.265625 -1.296875 L 5.90625 -3.203125 L 8.90625 -10.84375 L 10.453125 -10.84375 Z M 6.015625 0 "/></g></g></g><g fill="#545454" fill-opacity="1"><g transform="translate(154.077055, 265.015198)"><g><path d="M 1.296875 0 L 1.296875 -10.84375 L 9.515625 -10.84375 L 9.515625 -9.640625 L 2.765625 -9.640625 L 2.765625 -6.171875 L 9.0625 -6.171875 L 9.0625 -4.984375 L 2.765625 -4.984375 L 2.765625 -1.203125 L 9.84375 -1.203125 L 9.84375 0 Z M 1.296875 0 "/></g></g></g><g fill="#545454" fill-opacity="1"><g transform="translate(165.385025, 265.015198)"><g><path d="M 1.296875 0 L 1.296875 -10.84375 L 2.765625 -10.84375 L 2.765625 -1.203125 L 8.25 -1.203125 L 8.25 0 Z M 1.296875 0 "/></g></g></g><g fill="#545454" fill-opacity="1"><g transform="translate(174.944896, 265.015198)"><g/></g></g><g fill="#545454" fill-opacity="1"><g transform="translate(180.115267, 265.015198)"><g><path d="M 8.984375 0 L 7.75 -3.171875 L 2.796875 -3.171875 L 1.5625 0 L 0.03125 0 L 4.453125 -10.84375 L 6.125 -10.84375 L 10.484375 0 Z M 5.265625 -9.734375 L 5.203125 -9.515625 C 5.078125 -9.097656 4.890625 -8.554688 4.640625 -7.890625 L 3.25 -4.3125 L 7.3125 -4.3125 L 5.90625 -7.890625 C 5.769531 -8.242188 5.628906 -8.644531 5.484375 -9.09375 Z M 5.265625 -9.734375 "/></g></g></g><g fill="#545454" fill-opacity="1"><g transform="translate(191.423237, 265.015198)"><g><path d="M 0.796875 -5.46875 C 0.796875 -7.226562 1.265625 -8.59375 2.203125 -9.5625 C 3.148438 -10.53125 4.476562 -11.015625 6.1875 -11.015625 C 7.382812 -11.015625 8.359375 -10.8125 9.109375 -10.40625 C 9.859375 -10 10.4375 -9.347656 10.84375 -8.453125 L 9.453125 -8.03125 C 9.140625 -8.644531 8.710938 -9.09375 8.171875 -9.375 C 7.628906 -9.664062 6.957031 -9.8125 6.15625 -9.8125 C 4.894531 -9.8125 3.929688 -9.429688 3.265625 -8.671875 C 2.609375 -7.910156 2.28125 -6.84375 2.28125 -5.46875 C 2.28125 -4.101562 2.628906 -3.023438 3.328125 -2.234375 C 4.035156 -1.441406 5.015625 -1.046875 6.265625 -1.046875 C 6.972656 -1.046875 7.628906 -1.148438 8.234375 -1.359375 C 8.847656 -1.578125 9.347656 -1.867188 9.734375 -2.234375 L 9.734375 -4.203125 L 6.484375 -4.203125 L 6.484375 -5.421875 L 11.078125 -5.421875 L 11.078125 -1.6875 C 10.503906 -1.101562 9.800781 -0.648438 8.96875 -0.328125 C 8.132812 -0.00390625 7.234375 0.15625 6.265625 0.15625 C 5.128906 0.15625 4.148438 -0.0664062 3.328125 -0.515625 C 2.503906 -0.972656 1.875 -1.625 1.4375 -2.46875 C 1.007812 -3.320312 0.796875 -4.320312 0.796875 -5.46875 Z M 0.796875 -5.46875 "/></g></g></g><g fill="#545454" fill-opacity="1"><g transform="translate(204.479306, 265.015198)"><g><path d="M 1.296875 0 L 1.296875 -10.84375 L 9.515625 -10.84375 L 9.515625 -9.640625 L 2.765625 -9.640625 L 2.765625 -6.171875 L 9.0625 -6.171875 L 9.0625 -4.984375 L 2.765625 -4.984375 L 2.765625 -1.203125 L 9.84375 -1.203125 L 9.84375 0 Z M 1.296875 0 "/></g></g></g><g fill="#545454" fill-opacity="1"><g transform="translate(215.787275, 265.015198)"><g><path d="M 8.328125 0 L 2.53125 -9.234375 L 2.5625 -8.484375 L 2.609375 -7.203125 L 2.609375 0 L 1.296875 0 L 1.296875 -10.84375 L 3 -10.84375 L 8.875 -1.546875 C 8.8125 -2.554688 8.78125 -3.285156 8.78125 -3.734375 L 8.78125 -10.84375 L 10.09375 -10.84375 L 10.09375 0 Z M 8.328125 0 "/></g></g></g><g fill="#545454" fill-opacity="1"><g transform="translate(227.965444, 265.015198)"><g><path d="M 6.09375 -9.8125 C 4.894531 -9.8125 3.960938 -9.421875 3.296875 -8.640625 C 2.628906 -7.867188 2.296875 -6.8125 2.296875 -5.46875 C 2.296875 -4.144531 2.640625 -3.078125 3.328125 -2.265625 C 4.023438 -1.453125 4.96875 -1.046875 6.15625 -1.046875 C 7.675781 -1.046875 8.816406 -1.800781 9.578125 -3.3125 L 10.78125 -2.703125 C 10.332031 -1.773438 9.703125 -1.066406 8.890625 -0.578125 C 8.085938 -0.0859375 7.15625 0.15625 6.09375 0.15625 C 5 0.15625 4.050781 -0.0664062 3.25 -0.515625 C 2.457031 -0.972656 1.847656 -1.625 1.421875 -2.46875 C 1.003906 -3.3125 0.796875 -4.3125 0.796875 -5.46875 C 0.796875 -7.195312 1.265625 -8.550781 2.203125 -9.53125 C 3.140625 -10.519531 4.429688 -11.015625 6.078125 -11.015625 C 7.234375 -11.015625 8.195312 -10.785156 8.96875 -10.328125 C 9.75 -9.878906 10.320312 -9.210938 10.6875 -8.328125 L 9.296875 -7.859375 C 9.046875 -8.492188 8.640625 -8.976562 8.078125 -9.3125 C 7.523438 -9.644531 6.863281 -9.8125 6.09375 -9.8125 Z M 6.09375 -9.8125 "/></g></g></g><g fill="#545454" fill-opacity="1"><g transform="translate(240.143621, 265.015198)"><g><path d="M 5.984375 -4.5 L 5.984375 0 L 4.515625 0 L 4.515625 -4.5 L 0.34375 -10.84375 L 1.96875 -10.84375 L 5.265625 -5.6875 L 8.546875 -10.84375 L 10.171875 -10.84375 Z M 5.984375 -4.5 "/></g></g></g></svg>