<svg xmlns="http://www.w3.org/2000/svg" xmlns:xlink="http://www.w3.org/1999/xlink" width="500" zoomAndPan="magnify" viewBox="0 0 375 374.999991" height="500" preserveAspectRatio="xMidYMid meet" version="1.0"><defs><clipPath id="2aae921d77"><path d="M 104.476562 135 L 208 135 L 208 211 L 104.476562 211 Z M 104.476562 135 " clip-rule="nonzero"/></clipPath><clipPath id="86caab1449"><path d="M 105 185 L 270.226562 185 L 270.226562 260.5 L 105 260.5 Z M 105 185 " clip-rule="nonzero"/></clipPath></defs><rect x="-37.5" width="450" fill="#ffffff" y="-37.499999" height="449.999989" fill-opacity="1"/><rect x="-37.5" width="450" fill="#0cc0df" y="-37.499999" height="449.999989" fill-opacity="1"/><g clip-path="url(#2aae921d77)"><path fill="#ffffff" d="M 175.441406 206.105469 C 175.441406 206.105469 151.96875 194.535156 143.445312 188.703125 C 141.96875 187.691406 145.769531 186.035156 149.820312 185.464844 C 158.222656 184.855469 206.742188 191.128906 206.742188 191.128906 L 207.3125 190.859375 C 200.15625 189.457031 193.132812 187.375 186.382812 184.652344 C 178.429688 181.445312 170.8125 177.332031 163.746094 172.429688 C 149.914062 162.835938 138.128906 150.109375 129.632812 135.59375 C 117.125 146.722656 107.792969 162.203125 104.476562 181.511719 C 104.476562 226.902344 175.441406 206.105469 175.441406 206.105469 Z M 175.441406 206.105469 " fill-opacity="1" fill-rule="nonzero"/></g><g clip-path="url(#86caab1449)"><path fill="#ffffff" d="M 248.800781 191.457031 L 247.800781 191.625 C 247.164062 192.828125 245.90625 194.058594 243.570312 195.070312 C 243.570312 195.070312 202.648438 215.136719 180.402344 221.335938 C 143.304688 231.667969 119.070312 231.46875 105.070312 208.402344 C 106.828125 223.8125 111.453125 236.996094 118.492188 247.75 C 120.476562 246.722656 122.726562 246.132812 125.113281 246.113281 C 125.0625 245.777344 125.035156 245.433594 125.035156 245.085938 C 125.035156 241.144531 128.230469 237.949219 132.171875 237.949219 C 134.300781 237.949219 136.210938 238.886719 137.519531 240.367188 C 142.382812 235.976562 148.828125 233.300781 155.898438 233.300781 C 162.453125 233.300781 168.472656 235.605469 173.191406 239.4375 C 175.292969 238.265625 177.71875 237.59375 180.300781 237.59375 C 186.144531 237.59375 191.183594 241.019531 193.527344 245.96875 C 194.546875 245.40625 195.722656 245.082031 196.972656 245.082031 C 200.914062 245.082031 204.109375 248.277344 204.109375 252.214844 C 204.109375 253.242188 203.890625 254.21875 203.496094 255.105469 C 207.003906 255.960938 210.253906 257.492188 213.085938 259.554688 C 213.6875 252.03125 219.980469 246.109375 227.660156 246.109375 C 228.097656 246.109375 228.527344 246.132812 228.953125 246.167969 C 230.183594 244.019531 232.496094 242.570312 235.148438 242.570312 C 239.089844 242.570312 242.28125 245.765625 242.28125 249.703125 C 242.28125 251.390625 241.699219 252.9375 240.71875 254.160156 C 241.71875 256.136719 242.28125 258.367188 242.28125 260.734375 C 259.59375 245.515625 270.523438 223.210938 270.523438 198.351562 C 270.523438 194.121094 270.207031 189.988281 269.597656 185.96875 C 262.863281 188.4375 255.871094 190.285156 248.800781 191.457031 Z M 248.800781 191.457031 " fill-opacity="1" fill-rule="nonzero"/></g><path fill="#ffffff" d="M 187.496094 115.320312 C 167.988281 114.246094 147.796875 120.628906 132.058594 133.527344 C 148.765625 162.402344 177.917969 183.179688 212.175781 188.527344 L 228.550781 180.695312 C 230.78125 179.726562 234.5625 179.875 238.199219 180.789062 L 232.984375 186.574219 L 241.152344 181.71875 C 244.226562 182.898438 246.8125 184.613281 247.679688 186.617188 C 247.679688 186.617188 248.101562 187.316406 248.285156 188.359375 C 255.460938 187.171875 262.410156 185.300781 269.058594 182.824219 C 261.738281 144.859375 227.953125 117.550781 187.496094 115.320312 Z M 187.496094 115.320312 " fill-opacity="1" fill-rule="nonzero"/></svg>