<svg xmlns="http://www.w3.org/2000/svg" xmlns:xlink="http://www.w3.org/1999/xlink" width="500" zoomAndPan="magnify" viewBox="0 0 375 374.999991" height="500" preserveAspectRatio="xMidYMid meet" version="1.0"><defs><g/></defs><rect x="-37.5" width="450" fill="#ffffff" y="-37.499999" height="449.999989" fill-opacity="1"/><rect x="-37.5" width="450" fill="#ffffff" y="-37.499999" height="449.999989" fill-opacity="1"/><g fill="#000000" fill-opacity="1"><g transform="translate(29.094825, 188.323791)"><g><path d="M 16.5 0.671875 C 14.175781 0.671875 10.09375 0.445312 4.25 0 L 4.25 -35.984375 C 10.0625 -36.453125 14.253906 -36.6875 16.828125 -36.6875 C 19.410156 -36.6875 21.597656 -36.351562 23.390625 -35.6875 C 25.191406 -35.03125 26.617188 -34.160156 27.671875 -33.078125 C 28.734375 -32.003906 29.585938 -30.644531 30.234375 -29 C 31.359375 -26.269531 31.921875 -22.753906 31.921875 -18.453125 C 31.921875 -11.648438 30.570312 -6.757812 27.875 -3.78125 C 25.175781 -0.8125 21.382812 0.671875 16.5 0.671875 Z M 12.25 -6.515625 C 13.6875 -6.335938 15.328125 -6.25 17.171875 -6.25 C 19.015625 -6.25 20.296875 -6.570312 21.015625 -7.21875 C 22.585938 -8.519531 23.375 -12.191406 23.375 -18.234375 C 23.375 -24.285156 22.640625 -27.859375 21.171875 -28.953125 C 20.410156 -29.535156 19.09375 -29.828125 17.21875 -29.828125 L 12.25 -29.515625 Z M 12.25 -6.515625 "/></g></g></g><g fill="#000000" fill-opacity="1"><g transform="translate(66.149666, 188.323791)"><g><path d="M 31.421875 -24.703125 C 31.421875 -19.265625 28.976562 -15.675781 24.09375 -13.9375 L 24.09375 -13.625 L 32.84375 0 L 23.53125 0 L 16.90625 -12.8125 L 12.296875 -12.921875 L 12.296875 0 L 4.25 0 L 4.453125 -16.703125 L 4.25 -35.984375 C 12.382812 -36.453125 16.929688 -36.6875 17.890625 -36.6875 C 26.910156 -36.6875 31.421875 -32.691406 31.421875 -24.703125 Z M 12.296875 -19.578125 C 14.617188 -19.335938 16.660156 -19.21875 18.421875 -19.21875 C 20.179688 -19.21875 21.398438 -19.632812 22.078125 -20.46875 C 22.765625 -21.3125 23.109375 -22.921875 23.109375 -25.296875 C 23.109375 -27.671875 22.679688 -29.128906 21.828125 -29.671875 C 21.210938 -30.078125 19.851562 -30.28125 17.75 -30.28125 C 15.65625 -30.28125 13.835938 -30.179688 12.296875 -29.984375 Z M 12.296875 -19.578125 "/></g></g></g><g fill="#000000" fill-opacity="1"><g transform="translate(104.33204, 188.323791)"><g><path d="M 4.25 0 L 4.25 -36.03125 L 25.875 -36.03125 L 25.875 -29.15625 L 12.25 -29.3125 L 12.046875 -21.625 L 24.59375 -21.625 L 24.59375 -14.859375 L 12.046875 -14.859375 L 12.25 -6.765625 L 25.875 -6.875 L 25.875 0 Z M 4.25 0 "/></g></g></g><g fill="#000000" fill-opacity="1"><g transform="translate(135.13425, 188.323791)"><g><path d="M 7.578125 0 L -0.5625 0 L 9.734375 -36.03125 L 19.375 -36.03125 L 29.671875 0 L 21.53125 0 L 19.46875 -8 L 9.640625 -8 Z M 17.9375 -14.765625 L 14.703125 -28.65625 L 14.40625 -28.65625 L 11.171875 -14.765625 Z M 17.9375 -14.765625 "/></g></g></g><g fill="#000000" fill-opacity="1"><g transform="translate(167.063992, 188.323791)"><g><path d="M 25.671875 -8.296875 L 17.578125 -8.296875 L 12.046875 -27.015625 L 11.734375 -27.015625 L 12.046875 0 L 4.046875 0 L 5.28125 -36.03125 L 15.578125 -36.03125 L 21.421875 -15.890625 L 21.734375 -15.890625 L 27.515625 -36.03125 L 37.765625 -36.03125 L 39.15625 0 L 31.15625 0 L 31.359375 -27.015625 L 31.0625 -27.015625 Z M 25.671875 -8.296875 "/></g></g></g><g fill="#000000" fill-opacity="1"><g transform="translate(212.831518, 188.323791)"><g/></g></g><g fill="#000000" fill-opacity="1"><g transform="translate(227.694651, 188.323791)"><g><path d="M -0.8125 -36.03125 L 27.21875 -36.03125 L 27.21875 -29.0625 L 16.96875 -29.21875 L 17.125 0 L 9.078125 0 L 9.21875 -29.21875 L -0.8125 -29.0625 Z M -0.8125 -36.03125 "/></g></g></g><g fill="#000000" fill-opacity="1"><g transform="translate(256.703062, 188.323791)"><g><path d="M 31.421875 -24.703125 C 31.421875 -19.265625 28.976562 -15.675781 24.09375 -13.9375 L 24.09375 -13.625 L 32.84375 0 L 23.53125 0 L 16.90625 -12.8125 L 12.296875 -12.921875 L 12.296875 0 L 4.25 0 L 4.453125 -16.703125 L 4.25 -35.984375 C 12.382812 -36.453125 16.929688 -36.6875 17.890625 -36.6875 C 26.910156 -36.6875 31.421875 -32.691406 31.421875 -24.703125 Z M 12.296875 -19.578125 C 14.617188 -19.335938 16.660156 -19.21875 18.421875 -19.21875 C 20.179688 -19.21875 21.398438 -19.632812 22.078125 -20.46875 C 22.765625 -21.3125 23.109375 -22.921875 23.109375 -25.296875 C 23.109375 -27.671875 22.679688 -29.128906 21.828125 -29.671875 C 21.210938 -30.078125 19.851562 -30.28125 17.75 -30.28125 C 15.65625 -30.28125 13.835938 -30.179688 12.296875 -29.984375 Z M 12.296875 -19.578125 "/></g></g></g><g fill="#000000" fill-opacity="1"><g transform="translate(294.885447, 188.323791)"><g><path d="M 12.203125 -19.984375 L 12.34375 0 L 4.25 0 L 4.453125 -16.609375 L 4.25 -36.03125 L 12.34375 -36.03125 Z M 12.203125 -19.984375 "/></g></g></g><g fill="#000000" fill-opacity="1"><g transform="translate(314.053652, 188.323791)"><g><path d="M 4.25 -35.984375 C 9.75 -36.453125 14.394531 -36.6875 18.1875 -36.6875 C 21.976562 -36.6875 24.882812 -35.617188 26.90625 -33.484375 C 28.925781 -31.347656 29.9375 -28.195312 29.9375 -24.03125 C 29.9375 -18.976562 28.582031 -15.441406 25.875 -13.421875 C 23.550781 -11.710938 20.632812 -10.859375 17.125 -10.859375 L 12.296875 -11.015625 L 12.296875 0 L 4.25 0 L 4.453125 -16.8125 Z M 20.5 -29.46875 C 20.019531 -29.945312 18.890625 -30.1875 17.109375 -30.1875 C 15.335938 -30.1875 13.734375 -30.101562 12.296875 -29.9375 L 12.296875 -17.984375 C 13.734375 -17.742188 15.320312 -17.625 17.0625 -17.625 C 18.8125 -17.625 20.007812 -17.921875 20.65625 -18.515625 C 21.300781 -19.117188 21.625 -20.921875 21.625 -23.921875 C 21.625 -26.929688 21.25 -28.78125 20.5 -29.46875 Z M 20.5 -29.46875 "/></g></g></g><g fill="#545454" fill-opacity="1"><g transform="translate(77.964315, 223.563772)"><g><path d="M 7.71875 -13.4375 L 7.71875 0 L 5.6875 0 L 5.6875 -13.4375 L 0.5 -13.4375 L 0.5 -15.109375 L 12.921875 -15.109375 L 12.921875 -13.4375 Z M 7.71875 -13.4375 "/></g></g></g><g fill="#545454" fill-opacity="1"><g transform="translate(92.481481, 223.563772)"><g><path d="M 12.484375 0 L 8.5625 -6.28125 L 3.84375 -6.28125 L 3.84375 0 L 1.796875 0 L 1.796875 -15.109375 L 8.921875 -15.109375 C 10.617188 -15.109375 11.929688 -14.726562 12.859375 -13.96875 C 13.785156 -13.207031 14.25 -12.148438 14.25 -10.796875 C 14.25 -9.671875 13.921875 -8.722656 13.265625 -7.953125 C 12.609375 -7.191406 11.707031 -6.710938 10.5625 -6.515625 L 14.84375 0 Z M 12.1875 -10.765625 C 12.1875 -11.648438 11.882812 -12.320312 11.28125 -12.78125 C 10.6875 -13.238281 9.828125 -13.46875 8.703125 -13.46875 L 3.84375 -13.46875 L 3.84375 -7.890625 L 8.796875 -7.890625 C 9.878906 -7.890625 10.710938 -8.140625 11.296875 -8.640625 C 11.890625 -9.148438 12.1875 -9.859375 12.1875 -10.765625 Z M 12.1875 -10.765625 "/></g></g></g><g fill="#545454" fill-opacity="1"><g transform="translate(109.444275, 223.563772)"><g><path d="M 12.515625 0 L 10.796875 -4.421875 L 3.90625 -4.421875 L 2.171875 0 L 0.046875 0 L 6.203125 -15.109375 L 8.53125 -15.109375 L 14.609375 0 Z M 7.34375 -13.5625 L 7.25 -13.265625 C 7.070312 -12.671875 6.804688 -11.910156 6.453125 -10.984375 L 4.53125 -6.015625 L 10.1875 -6.015625 L 8.234375 -11 C 8.035156 -11.5 7.835938 -12.054688 7.640625 -12.671875 Z M 7.34375 -13.5625 "/></g></g></g><g fill="#545454" fill-opacity="1"><g transform="translate(125.194983, 223.563772)"><g><path d="M 8.390625 0 L 6.265625 0 L 0.09375 -15.109375 L 2.25 -15.109375 L 6.4375 -4.46875 L 7.34375 -1.796875 L 8.234375 -4.46875 L 12.40625 -15.109375 L 14.5625 -15.109375 Z M 8.390625 0 "/></g></g></g><g fill="#545454" fill-opacity="1"><g transform="translate(140.945687, 223.563772)"><g><path d="M 1.796875 0 L 1.796875 -15.109375 L 13.265625 -15.109375 L 13.265625 -13.4375 L 3.84375 -13.4375 L 3.84375 -8.59375 L 12.625 -8.59375 L 12.625 -6.9375 L 3.84375 -6.9375 L 3.84375 -1.671875 L 13.703125 -1.671875 L 13.703125 0 Z M 1.796875 0 "/></g></g></g><g fill="#545454" fill-opacity="1"><g transform="translate(156.696391, 223.563772)"><g><path d="M 1.796875 0 L 1.796875 -15.109375 L 3.84375 -15.109375 L 3.84375 -1.671875 L 11.484375 -1.671875 L 11.484375 0 Z M 1.796875 0 "/></g></g></g><g fill="#545454" fill-opacity="1"><g transform="translate(170.012193, 223.563772)"><g/></g></g><g fill="#545454" fill-opacity="1"><g transform="translate(177.213927, 223.563772)"><g><path d="M 12.515625 0 L 10.796875 -4.421875 L 3.90625 -4.421875 L 2.171875 0 L 0.046875 0 L 6.203125 -15.109375 L 8.53125 -15.109375 L 14.609375 0 Z M 7.34375 -13.5625 L 7.25 -13.265625 C 7.070312 -12.671875 6.804688 -11.910156 6.453125 -10.984375 L 4.53125 -6.015625 L 10.1875 -6.015625 L 8.234375 -11 C 8.035156 -11.5 7.835938 -12.054688 7.640625 -12.671875 Z M 7.34375 -13.5625 "/></g></g></g><g fill="#545454" fill-opacity="1"><g transform="translate(192.96463, 223.563772)"><g><path d="M 1.109375 -7.625 C 1.109375 -10.082031 1.765625 -11.984375 3.078125 -13.328125 C 4.390625 -14.671875 6.238281 -15.34375 8.625 -15.34375 C 10.300781 -15.34375 11.660156 -15.054688 12.703125 -14.484375 C 13.742188 -13.921875 14.546875 -13.019531 15.109375 -11.78125 L 13.15625 -11.203125 C 12.726562 -12.054688 12.132812 -12.679688 11.375 -13.078125 C 10.625 -13.472656 9.691406 -13.671875 8.578125 -13.671875 C 6.828125 -13.671875 5.488281 -13.140625 4.5625 -12.078125 C 3.644531 -11.023438 3.1875 -9.539062 3.1875 -7.625 C 3.1875 -5.71875 3.675781 -4.210938 4.65625 -3.109375 C 5.632812 -2.003906 6.988281 -1.453125 8.71875 -1.453125 C 9.707031 -1.453125 10.628906 -1.597656 11.484375 -1.890625 C 12.335938 -2.191406 13.03125 -2.601562 13.5625 -3.125 L 13.5625 -5.84375 L 9.046875 -5.84375 L 9.046875 -7.5625 L 15.453125 -7.5625 L 15.453125 -2.34375 C 14.648438 -1.53125 13.664062 -0.898438 12.5 -0.453125 C 11.34375 -0.00390625 10.082031 0.21875 8.71875 0.21875 C 7.132812 0.21875 5.769531 -0.09375 4.625 -0.71875 C 3.488281 -1.351562 2.617188 -2.257812 2.015625 -3.4375 C 1.410156 -4.625 1.109375 -6.019531 1.109375 -7.625 Z M 1.109375 -7.625 "/></g></g></g><g fill="#545454" fill-opacity="1"><g transform="translate(211.150235, 223.563772)"><g><path d="M 1.796875 0 L 1.796875 -15.109375 L 13.265625 -15.109375 L 13.265625 -13.4375 L 3.84375 -13.4375 L 3.84375 -8.59375 L 12.625 -8.59375 L 12.625 -6.9375 L 3.84375 -6.9375 L 3.84375 -1.671875 L 13.703125 -1.671875 L 13.703125 0 Z M 1.796875 0 "/></g></g></g><g fill="#545454" fill-opacity="1"><g transform="translate(226.900939, 223.563772)"><g><path d="M 11.609375 0 L 3.515625 -12.875 L 3.578125 -11.828125 L 3.625 -10.046875 L 3.625 0 L 1.796875 0 L 1.796875 -15.109375 L 4.1875 -15.109375 L 12.359375 -2.15625 C 12.273438 -3.5625 12.234375 -4.578125 12.234375 -5.203125 L 12.234375 -15.109375 L 14.078125 -15.109375 L 14.078125 0 Z M 11.609375 0 "/></g></g></g><g fill="#545454" fill-opacity="1"><g transform="translate(243.86373, 223.563772)"><g><path d="M 8.5 -13.671875 C 6.820312 -13.671875 5.519531 -13.128906 4.59375 -12.046875 C 3.664062 -10.972656 3.203125 -9.5 3.203125 -7.625 C 3.203125 -5.769531 3.6875 -4.28125 4.65625 -3.15625 C 5.625 -2.03125 6.929688 -1.46875 8.578125 -1.46875 C 10.691406 -1.46875 12.285156 -2.515625 13.359375 -4.609375 L 15.03125 -3.78125 C 14.40625 -2.476562 13.53125 -1.484375 12.40625 -0.796875 C 11.28125 -0.117188 9.972656 0.21875 8.484375 0.21875 C 6.960938 0.21875 5.644531 -0.0976562 4.53125 -0.734375 C 3.414062 -1.367188 2.566406 -2.273438 1.984375 -3.453125 C 1.398438 -4.628906 1.109375 -6.019531 1.109375 -7.625 C 1.109375 -10.03125 1.757812 -11.914062 3.0625 -13.28125 C 4.363281 -14.65625 6.164062 -15.34375 8.46875 -15.34375 C 10.082031 -15.34375 11.425781 -15.023438 12.5 -14.390625 C 13.582031 -13.765625 14.378906 -12.832031 14.890625 -11.59375 L 12.953125 -10.953125 C 12.597656 -11.828125 12.03125 -12.5 11.25 -12.96875 C 10.476562 -13.4375 9.5625 -13.671875 8.5 -13.671875 Z M 8.5 -13.671875 "/></g></g></g><g fill="#545454" fill-opacity="1"><g transform="translate(260.826531, 223.563772)"><g><path d="M 8.328125 -6.265625 L 8.328125 0 L 6.296875 0 L 6.296875 -6.265625 L 0.484375 -15.109375 L 2.734375 -15.109375 L 7.34375 -7.921875 L 11.921875 -15.109375 L 14.171875 -15.109375 Z M 8.328125 -6.265625 "/></g></g></g></svg>