<svg xmlns="http://www.w3.org/2000/svg" xmlns:xlink="http://www.w3.org/1999/xlink" width="500" zoomAndPan="magnify" viewBox="0 0 375 374.999991" height="500" preserveAspectRatio="xMidYMid meet" version="1.0"><defs><g/><clipPath id="c8869ead15"><path d="M 56.355469 156.21875 L 187.488281 156.21875 L 187.488281 265.378906 L 56.355469 265.378906 Z M 56.355469 156.21875 " clip-rule="nonzero"/></clipPath><clipPath id="eb4655a0bd"><path d="M 215.121094 147.742188 L 332.121094 147.742188 L 332.121094 273.742188 L 215.121094 273.742188 Z M 215.121094 147.742188 " clip-rule="nonzero"/></clipPath></defs><rect x="-37.5" width="450" fill="#ffffff" y="-37.499999" height="449.999989" fill-opacity="1"/><rect x="-37.5" width="450" fill="#ffffff" y="-37.499999" height="449.999989" fill-opacity="1"/><g clip-path="url(#c8869ead15)"><path fill="#0097b2" d="M 185.414062 190.878906 C 182.097656 184.328125 174.394531 182.476562 168.863281 178.433594 C 161.167969 172.699219 157.148438 158.109375 144.414062 162.113281 C 135.511719 164.917969 133.226562 170.757812 120.191406 169.25 C 105.582031 167.558594 99.683594 153.027344 82.402344 156.859375 C 67.148438 159.378906 46.09375 172.40625 62.054688 192.558594 C 74.546875 206.953125 89.824219 220.785156 75.066406 235.363281 C 70.714844 239.660156 65.695312 244.933594 65.710938 250.207031 C 65.78125 268.789062 94.628906 268.851562 105.566406 258.21875 C 109.433594 254.859375 112.585938 250.367188 117.527344 248.492188 C 127.160156 245.023438 136.726562 251.667969 146.457031 250.695312 C 152.527344 250.308594 158.515625 245.933594 158.578125 239.457031 C 158.878906 234.234375 156.710938 228.898438 158.433594 223.773438 C 163.371094 209.851562 195.914062 210.933594 185.414062 190.878906 " fill-opacity="1" fill-rule="nonzero"/></g><g clip-path="url(#eb4655a0bd)"><path fill="#0cc0df" d="M 296.6875 242.621094 C 296.6875 243.703125 296.644531 244.78125 296.710938 245.839844 C 296.777344 247.050781 296.796875 248.265625 296.863281 249.476562 C 296.929688 250.867188 296.953125 252.253906 296.820312 253.644531 C 296.6875 255.078125 296.511719 256.507812 296.246094 257.921875 C 295.894531 259.90625 295.519531 261.867188 294.59375 263.675781 C 294.019531 264.753906 293.335938 265.746094 292.585938 266.695312 C 291.792969 267.707031 290.910156 268.699219 289.984375 269.605469 C 287.847656 271.71875 285.269531 273 282.316406 273.570312 C 281.058594 273.816406 279.78125 273.859375 278.523438 273.75 C 276.515625 273.59375 274.578125 273.066406 272.703125 272.316406 C 269.835938 271.167969 267.28125 269.515625 264.898438 267.554688 C 263.707031 266.582031 262.605469 265.527344 261.570312 264.378906 C 259.675781 262.285156 258 260.035156 256.609375 257.566406 C 255.441406 255.453125 254.472656 253.246094 253.746094 250.933594 C 253.195312 249.167969 252.820312 247.359375 252.445312 245.554688 C 252.089844 243.878906 251.761719 242.179688 251.097656 240.570312 C 250.636719 239.425781 250.042969 238.34375 249.179688 237.441406 C 248.101562 236.316406 246.757812 235.632812 245.257812 235.28125 C 243.714844 234.929688 242.128906 234.949219 240.585938 235.082031 C 239.128906 235.191406 237.71875 235.523438 236.285156 235.875 C 234.652344 236.273438 233.023438 236.625 231.371094 236.824219 C 228.328125 237.199219 225.484375 236.625 222.902344 234.949219 C 220.875 233.648438 219.179688 231.996094 217.898438 229.945312 C 216.863281 228.292969 216.203125 226.460938 215.761719 224.566406 C 215.519531 223.507812 215.363281 222.429688 215.300781 221.328125 C 215.253906 220.773438 215.234375 220.203125 215.210938 219.652344 C 215.1875 217.445312 215.496094 215.265625 215.980469 213.125 C 216.644531 210.0625 217.835938 207.195312 219.3125 204.441406 C 220.414062 202.414062 221.625 200.449219 223.101562 198.6875 C 224.074219 197.519531 225.175781 196.4375 226.320312 195.402344 C 227.46875 194.386719 228.722656 193.507812 229.9375 192.582031 C 230.773438 191.964844 231.566406 191.234375 232.074219 190.332031 C 232.671875 189.296875 232.867188 188.171875 232.296875 187.003906 C 231.699219 185.8125 231.125 184.601562 230.839844 183.277344 C 230.398438 181.359375 230.554688 179.464844 231.28125 177.65625 C 231.988281 175.871094 233.023438 174.328125 234.457031 173.046875 C 235.46875 172.144531 236.617188 171.417969 237.871094 170.867188 C 238.6875 170.511719 239.527344 170.183594 240.40625 170.007812 C 241.730469 169.742188 243.054688 169.742188 244.398438 169.875 C 245.808594 170.007812 247.175781 170.269531 248.542969 170.625 C 249.953125 170.976562 251.277344 171.503906 252.597656 172.101562 C 253.746094 172.628906 254.867188 173.203125 255.972656 173.820312 C 256.941406 174.371094 257.976562 174.746094 259.078125 174.988281 C 260.425781 175.296875 260.886719 174.855469 261.503906 174.0625 C 262.054688 173.355469 262.296875 172.496094 262.496094 171.636719 C 262.738281 170.535156 262.871094 169.433594 262.960938 168.308594 C 263.003906 167.558594 262.980469 166.789062 263.046875 166.039062 C 263.136719 165.070312 263.089844 164.097656 263.15625 163.128906 C 263.269531 160.726562 263.839844 158.433594 265.007812 156.316406 C 265.539062 155.367188 266.15625 154.507812 266.839844 153.671875 C 267.300781 153.097656 267.832031 152.570312 268.339844 152.039062 C 269.550781 150.828125 270.9375 149.835938 272.503906 149.085938 C 273.847656 148.445312 275.261719 148.070312 276.738281 147.875 C 277.796875 147.742188 278.851562 147.742188 279.890625 147.808594 C 281.941406 147.941406 283.921875 148.359375 285.777344 149.328125 C 287.496094 150.210938 288.90625 151.46875 290.164062 152.921875 C 291.902344 154.949219 293.117188 157.285156 294.152344 159.710938 C 294.726562 161.011719 295.035156 162.378906 295.386719 163.746094 C 295.542969 164.339844 295.738281 164.9375 296.027344 165.464844 C 296.335938 166.015625 296.710938 166.148438 297.304688 165.949219 C 298.1875 165.640625 298.9375 165.113281 299.664062 164.582031 C 300.675781 163.835938 301.625 162.996094 302.550781 162.136719 C 303.917969 160.878906 305.285156 159.601562 306.671875 158.34375 C 307.953125 157.199219 309.386719 156.230469 310.882812 155.347656 C 312.757812 154.246094 314.785156 153.695312 316.902344 153.296875 C 318.355469 153.03125 319.8125 153.253906 321.222656 153.628906 C 323.316406 154.199219 325.257812 155.082031 327.042969 156.316406 C 328.917969 157.617188 330.4375 159.203125 331.363281 161.320312 C 331.78125 162.246094 332.003906 163.21875 332.070312 164.230469 C 332.179688 165.574219 332.023438 166.898438 331.628906 168.175781 C 331.320312 169.214844 330.835938 170.183594 330.261719 171.085938 C 329.269531 172.652344 328.144531 174.105469 326.800781 175.40625 C 325.808594 176.378906 324.839844 177.371094 323.824219 178.339844 C 323.363281 178.78125 322.898438 179.199219 322.4375 179.640625 C 321.574219 180.5 320.804688 181.449219 320.230469 182.503906 C 319.480469 183.871094 319.238281 185.328125 319.414062 186.894531 C 319.527344 187.820312 319.65625 188.746094 319.945312 189.625 C 320.273438 190.617188 320.78125 191.523438 321.378906 192.382812 C 322.390625 193.859375 323.558594 195.226562 324.664062 196.636719 C 325.941406 198.269531 327.042969 200.054688 327.925781 201.925781 C 328.542969 203.226562 328.894531 204.59375 329.136719 206.003906 C 329.292969 206.863281 329.359375 207.703125 329.359375 208.585938 C 329.335938 210.238281 329.09375 211.871094 328.628906 213.476562 C 327.816406 216.34375 326.402344 218.921875 324.507812 221.195312 C 322.898438 223.132812 320.980469 224.722656 318.578125 225.625 C 317.761719 225.933594 316.925781 226.109375 316.066406 226.175781 C 315.535156 226.199219 315.007812 226.285156 314.476562 226.265625 C 313.53125 226.21875 312.582031 226.109375 311.65625 226 C 310.3125 225.824219 308.988281 225.582031 307.644531 225.40625 C 307.070312 225.339844 306.496094 225.339844 305.902344 225.292969 C 305.019531 225.25 304.226562 225.492188 303.476562 225.910156 C 301.757812 226.816406 300.390625 228.117188 299.332031 229.746094 C 297.988281 231.839844 297.214844 234.132812 296.820312 236.582031 C 296.664062 237.550781 296.554688 238.542969 296.578125 239.511719 C 296.6875 240.59375 296.6875 241.609375 296.6875 242.621094 Z M 296.6875 242.621094 " fill-opacity="1" fill-rule="nonzero"/></g><g fill="#3293f8" fill-opacity="1"><g transform="translate(101.31445, 90.950004)"><g><path d="M 21.691406 0.464844 C 30.214844 0.464844 37.8125 -4.234375 39.960938 -12.179688 C 40.191406 -12.992188 39.726562 -13.457031 38.917969 -13.457031 L 32.015625 -13.457031 C 31.375 -13.457031 30.96875 -13.164062 30.679688 -12.527344 C 29.347656 -9.222656 25.808594 -7.421875 21.691406 -7.421875 C 15.3125 -7.421875 10.148438 -11.949219 10.148438 -19.835938 C 10.148438 -27.664062 15.3125 -32.1875 21.691406 -32.1875 C 25.75 -32.1875 29.289062 -30.390625 30.679688 -27.144531 C 30.96875 -26.503906 31.375 -26.214844 32.015625 -26.214844 L 38.859375 -26.214844 C 39.671875 -26.214844 40.132812 -26.679688 39.902344 -27.492188 C 37.699219 -35.320312 30.390625 -40.078125 21.75 -40.078125 C 10.730469 -40.078125 1.449219 -32.304688 1.449219 -19.835938 C 1.449219 -7.539062 10.496094 0.464844 21.691406 0.464844 Z M 21.691406 0.464844 "/></g></g></g><g fill="#3293f8" fill-opacity="1"><g transform="translate(142.665705, 90.950004)"><g><path d="M 16.238281 0.929688 C 25.34375 0.929688 30.796875 -4.699219 30.796875 -12.757812 C 30.796875 -20.761719 25.285156 -26.503906 16.238281 -26.503906 C 7.132812 -26.503906 1.625 -20.761719 1.625 -12.757812 C 1.625 -4.753906 7.074219 0.929688 16.238281 0.929688 Z M 16.238281 -5.859375 C 12.351562 -5.859375 10.265625 -8.875 10.265625 -12.703125 C 10.265625 -16.585938 12.410156 -19.71875 16.238281 -19.71875 C 20.066406 -19.71875 22.15625 -16.644531 22.15625 -12.703125 C 22.15625 -8.816406 20.066406 -5.859375 16.238281 -5.859375 Z M 16.238281 -5.859375 "/></g></g></g><g fill="#3293f8" fill-opacity="1"><g transform="translate(175.143554, 90.950004)"><g><path d="M 10.324219 0 C 11.078125 0 11.484375 -0.40625 11.484375 -1.160156 L 11.484375 -32.480469 C 11.484375 -38.453125 8.410156 -42.339844 2.785156 -43.5 L 2.785156 -1.160156 C 2.785156 -0.40625 3.191406 0 3.945312 0 Z M 10.324219 0 "/></g></g></g><g fill="#3293f8" fill-opacity="1"><g transform="translate(189.468603, 90.950004)"><g><path d="M 16.238281 0.929688 C 25.34375 0.929688 30.796875 -4.699219 30.796875 -12.757812 C 30.796875 -20.761719 25.285156 -26.503906 16.238281 -26.503906 C 7.132812 -26.503906 1.625 -20.761719 1.625 -12.757812 C 1.625 -4.753906 7.074219 0.929688 16.238281 0.929688 Z M 16.238281 -5.859375 C 12.351562 -5.859375 10.265625 -8.875 10.265625 -12.703125 C 10.265625 -16.585938 12.410156 -19.71875 16.238281 -19.71875 C 20.066406 -19.71875 22.15625 -16.644531 22.15625 -12.703125 C 22.15625 -8.816406 20.066406 -5.859375 16.238281 -5.859375 Z M 16.238281 -5.859375 "/></g></g></g><g fill="#3293f8" fill-opacity="1"><g transform="translate(221.946453, 90.950004)"><g><path d="M 19.835938 -25.925781 C 19.253906 -26.039062 18.558594 -26.15625 17.921875 -26.15625 C 14.847656 -26.15625 11.976562 -24.765625 10.148438 -21.054688 C 8.757812 -23.691406 6.265625 -25.433594 2.785156 -26.15625 L 2.785156 -1.160156 C 2.785156 -0.40625 3.191406 0 3.945312 0 L 10.324219 0 C 11.078125 0 11.484375 -0.40625 11.484375 -1.160156 L 11.484375 -12.875 C 11.832031 -16.414062 13.628906 -18.269531 16.761719 -18.269531 C 17.574219 -18.269531 18.441406 -18.152344 19.429688 -17.921875 C 20.242188 -17.6875 20.761719 -18.039062 20.761719 -18.847656 L 20.761719 -24.589844 C 20.761719 -25.230469 20.472656 -25.75 19.835938 -25.925781 Z M 19.835938 -25.925781 "/></g></g></g><g fill="#3293f8" fill-opacity="1"><g transform="translate(243.695009, 90.950004)"><g><path d="M 15.425781 0.929688 C 23.605469 0.929688 28.359375 -2.492188 28.359375 -8.410156 C 28.359375 -18.964844 11.25 -14.964844 11.25 -19.429688 C 11.25 -20.300781 12.121094 -21.109375 14.152344 -21.109375 C 16.644531 -21.109375 17.863281 -20.300781 18.558594 -18.792969 C 18.847656 -18.152344 19.253906 -17.804688 19.894531 -17.804688 L 26.097656 -17.804688 C 26.910156 -17.804688 27.316406 -18.269531 27.144531 -19.082031 C 25.867188 -24.070312 21.402344 -26.503906 14.617188 -26.503906 C 6.726562 -26.503906 2.492188 -23.199219 2.492188 -18.269531 C 2.492188 -7.945312 19.601562 -12.351562 19.601562 -7.597656 C 19.601562 -6.148438 18.328125 -5.105469 15.601562 -5.105469 C 14.035156 -5.105469 10.84375 -5.683594 10.148438 -8.410156 C 9.976562 -9.105469 9.628906 -9.511719 8.929688 -9.511719 L 2.609375 -9.511719 C 1.855469 -9.511719 1.390625 -9.046875 1.507812 -8.292969 C 2.609375 -1.855469 8.0625 0.929688 15.425781 0.929688 Z M 15.425781 0.929688 "/></g></g></g><g fill="#0097b2" fill-opacity="1"><g transform="translate(68.053776, 307.761191)"><g><path d="M 10.734375 -9.0625 L 10.234375 -6.578125 L 13 -6.578125 L 13 -4.359375 L 9.8125 -4.359375 L 8.984375 0 L 6.625 0 L 7.453125 -4.359375 L 5.375 -4.359375 L 4.5625 0 L 2.25 0 L 3.046875 -4.359375 L 0.484375 -4.359375 L 0.484375 -6.578125 L 3.453125 -6.578125 L 3.96875 -9.0625 L 1.25 -9.0625 L 1.25 -11.3125 L 4.359375 -11.3125 L 5.1875 -15.6875 L 7.546875 -15.6875 L 6.71875 -11.3125 L 8.84375 -11.3125 L 9.671875 -15.6875 L 11.984375 -15.6875 L 11.15625 -11.3125 L 13.734375 -11.3125 L 13.734375 -9.0625 Z M 5.796875 -6.578125 L 7.890625 -6.578125 L 8.40625 -9.0625 L 6.296875 -9.0625 Z M 5.796875 -6.578125 "/></g></g></g><g fill="#0097b2" fill-opacity="1"><g transform="translate(82.263172, 307.761191)"><g><path d="M 11.78125 -7.859375 C 11.78125 -5.109375 11.328125 -3.070312 10.421875 -1.75 C 9.523438 -0.4375 8.144531 0.21875 6.28125 0.21875 C 4.46875 0.21875 3.097656 -0.460938 2.171875 -1.828125 C 1.253906 -3.191406 0.796875 -5.203125 0.796875 -7.859375 C 0.796875 -10.628906 1.242188 -12.671875 2.140625 -13.984375 C 3.035156 -15.296875 4.414062 -15.953125 6.28125 -15.953125 C 8.082031 -15.953125 9.445312 -15.265625 10.375 -13.890625 C 11.3125 -12.515625 11.78125 -10.503906 11.78125 -7.859375 Z M 4.09375 -7.859375 C 4.09375 -5.929688 4.257812 -4.546875 4.59375 -3.703125 C 4.925781 -2.867188 5.488281 -2.453125 6.28125 -2.453125 C 7.050781 -2.453125 7.609375 -2.875 7.953125 -3.71875 C 8.296875 -4.570312 8.46875 -5.953125 8.46875 -7.859375 C 8.46875 -9.785156 8.289062 -11.164062 7.9375 -12 C 7.59375 -12.84375 7.039062 -13.265625 6.28125 -13.265625 C 5.5 -13.265625 4.9375 -12.84375 4.59375 -12 C 4.257812 -11.164062 4.09375 -9.785156 4.09375 -7.859375 Z M 4.09375 -7.859375 "/></g></g></g><g fill="#0097b2" fill-opacity="1"><g transform="translate(94.818564, 307.761191)"><g><path d="M 11.78125 -7.859375 C 11.78125 -5.109375 11.328125 -3.070312 10.421875 -1.75 C 9.523438 -0.4375 8.144531 0.21875 6.28125 0.21875 C 4.46875 0.21875 3.097656 -0.460938 2.171875 -1.828125 C 1.253906 -3.191406 0.796875 -5.203125 0.796875 -7.859375 C 0.796875 -10.628906 1.242188 -12.671875 2.140625 -13.984375 C 3.035156 -15.296875 4.414062 -15.953125 6.28125 -15.953125 C 8.082031 -15.953125 9.445312 -15.265625 10.375 -13.890625 C 11.3125 -12.515625 11.78125 -10.503906 11.78125 -7.859375 Z M 4.09375 -7.859375 C 4.09375 -5.929688 4.257812 -4.546875 4.59375 -3.703125 C 4.925781 -2.867188 5.488281 -2.453125 6.28125 -2.453125 C 7.050781 -2.453125 7.609375 -2.875 7.953125 -3.71875 C 8.296875 -4.570312 8.46875 -5.953125 8.46875 -7.859375 C 8.46875 -9.785156 8.289062 -11.164062 7.9375 -12 C 7.59375 -12.84375 7.039062 -13.265625 6.28125 -13.265625 C 5.5 -13.265625 4.9375 -12.84375 4.59375 -12 C 4.257812 -11.164062 4.09375 -9.785156 4.09375 -7.859375 Z M 4.09375 -7.859375 "/></g></g></g><g fill="#0097b2" fill-opacity="1"><g transform="translate(107.373956, 307.761191)"><g><path d="M 11.796875 -9 C 11.796875 -5.90625 11.144531 -3.59375 9.84375 -2.0625 C 8.539062 -0.539062 6.566406 0.21875 3.921875 0.21875 C 2.992188 0.21875 2.289062 0.164062 1.8125 0.0625 L 1.8125 -2.59375 C 2.40625 -2.445312 3.035156 -2.375 3.703125 -2.375 C 4.804688 -2.375 5.71875 -2.535156 6.4375 -2.859375 C 7.15625 -3.191406 7.703125 -3.707031 8.078125 -4.40625 C 8.453125 -5.101562 8.671875 -6.0625 8.734375 -7.28125 L 8.609375 -7.28125 C 8.191406 -6.613281 7.707031 -6.140625 7.15625 -5.859375 C 6.613281 -5.585938 5.9375 -5.453125 5.125 -5.453125 C 3.757812 -5.453125 2.679688 -5.890625 1.890625 -6.765625 C 1.097656 -7.648438 0.703125 -8.875 0.703125 -10.4375 C 0.703125 -12.113281 1.179688 -13.441406 2.140625 -14.421875 C 3.097656 -15.398438 4.398438 -15.890625 6.046875 -15.890625 C 7.203125 -15.890625 8.21875 -15.613281 9.09375 -15.0625 C 9.96875 -14.519531 10.632812 -13.734375 11.09375 -12.703125 C 11.5625 -11.671875 11.796875 -10.4375 11.796875 -9 Z M 6.109375 -13.21875 C 5.421875 -13.21875 4.882812 -12.984375 4.5 -12.515625 C 4.113281 -12.046875 3.921875 -11.363281 3.921875 -10.46875 C 3.921875 -9.707031 4.09375 -9.101562 4.4375 -8.65625 C 4.789062 -8.21875 5.328125 -8 6.046875 -8 C 6.722656 -8 7.300781 -8.21875 7.78125 -8.65625 C 8.257812 -9.101562 8.5 -9.613281 8.5 -10.1875 C 8.5 -11.039062 8.273438 -11.757812 7.828125 -12.34375 C 7.378906 -12.925781 6.804688 -13.21875 6.109375 -13.21875 Z M 6.109375 -13.21875 "/></g></g></g><g fill="#0097b2" fill-opacity="1"><g transform="translate(119.929349, 307.761191)"><g><path d="M 2.4375 0 L 8.34375 -12.890625 L 0.59375 -12.890625 L 0.59375 -15.6875 L 11.859375 -15.6875 L 11.859375 -13.59375 L 5.921875 0 Z M 2.4375 0 "/></g></g></g><g fill="#0097b2" fill-opacity="1"><g transform="translate(132.484741, 307.761191)"><g><path d="M 1.984375 -15.703125 L 6.859375 -15.703125 C 9.085938 -15.703125 10.703125 -15.382812 11.703125 -14.75 C 12.710938 -14.113281 13.21875 -13.109375 13.21875 -11.734375 C 13.21875 -10.796875 13 -10.023438 12.5625 -9.421875 C 12.125 -8.816406 11.539062 -8.457031 10.8125 -8.34375 L 10.8125 -8.234375 C 11.800781 -8.003906 12.515625 -7.582031 12.953125 -6.96875 C 13.398438 -6.363281 13.625 -5.5625 13.625 -4.5625 C 13.625 -3.125 13.101562 -2.003906 12.0625 -1.203125 C 11.03125 -0.398438 9.628906 0 7.859375 0 L 1.984375 0 Z M 5.3125 -9.484375 L 7.234375 -9.484375 C 8.140625 -9.484375 8.796875 -9.625 9.203125 -9.90625 C 9.609375 -10.1875 9.8125 -10.648438 9.8125 -11.296875 C 9.8125 -11.890625 9.585938 -12.316406 9.140625 -12.578125 C 8.703125 -12.847656 8.007812 -12.984375 7.0625 -12.984375 L 5.3125 -12.984375 Z M 5.3125 -6.84375 L 5.3125 -2.75 L 7.484375 -2.75 C 8.398438 -2.75 9.070312 -2.921875 9.5 -3.265625 C 9.9375 -3.617188 10.15625 -4.160156 10.15625 -4.890625 C 10.15625 -6.191406 9.226562 -6.84375 7.375 -6.84375 Z M 5.3125 -6.84375 "/></g></g></g><g fill="#0097b2" fill-opacity="1"><g transform="translate(147.263366, 307.761191)"><g><path d="M 11.859375 0 L 0.875 0 L 0.875 -2.3125 L 4.828125 -6.296875 C 5.992188 -7.492188 6.753906 -8.320312 7.109375 -8.78125 C 7.472656 -9.238281 7.734375 -9.664062 7.890625 -10.0625 C 8.046875 -10.457031 8.125 -10.867188 8.125 -11.296875 C 8.125 -11.921875 7.945312 -12.382812 7.59375 -12.6875 C 7.25 -13 6.785156 -13.15625 6.203125 -13.15625 C 5.597656 -13.15625 5.007812 -13.015625 4.4375 -12.734375 C 3.863281 -12.460938 3.265625 -12.066406 2.640625 -11.546875 L 0.84375 -13.6875 C 1.613281 -14.34375 2.253906 -14.804688 2.765625 -15.078125 C 3.273438 -15.347656 3.828125 -15.554688 4.421875 -15.703125 C 5.023438 -15.859375 5.703125 -15.9375 6.453125 -15.9375 C 7.429688 -15.9375 8.296875 -15.753906 9.046875 -15.390625 C 9.796875 -15.035156 10.378906 -14.535156 10.796875 -13.890625 C 11.210938 -13.242188 11.421875 -12.503906 11.421875 -11.671875 C 11.421875 -10.953125 11.289062 -10.273438 11.03125 -9.640625 C 10.78125 -9.003906 10.390625 -8.351562 9.859375 -7.6875 C 9.328125 -7.019531 8.382812 -6.070312 7.03125 -4.84375 L 5.015625 -2.9375 L 5.015625 -2.796875 L 11.859375 -2.796875 Z M 11.859375 0 "/></g></g></g><g fill="#0097b2" fill-opacity="1"><g transform="translate(225.826161, 307.761191)"><g><path d="M 10.734375 -9.0625 L 10.234375 -6.578125 L 13 -6.578125 L 13 -4.359375 L 9.8125 -4.359375 L 8.984375 0 L 6.625 0 L 7.453125 -4.359375 L 5.375 -4.359375 L 4.5625 0 L 2.25 0 L 3.046875 -4.359375 L 0.484375 -4.359375 L 0.484375 -6.578125 L 3.453125 -6.578125 L 3.96875 -9.0625 L 1.25 -9.0625 L 1.25 -11.3125 L 4.359375 -11.3125 L 5.1875 -15.6875 L 7.546875 -15.6875 L 6.71875 -11.3125 L 8.84375 -11.3125 L 9.671875 -15.6875 L 11.984375 -15.6875 L 11.15625 -11.3125 L 13.734375 -11.3125 L 13.734375 -9.0625 Z M 5.796875 -6.578125 L 7.890625 -6.578125 L 8.40625 -9.0625 L 6.296875 -9.0625 Z M 5.796875 -6.578125 "/></g></g></g><g fill="#0097b2" fill-opacity="1"><g transform="translate(240.035556, 307.761191)"><g><path d="M 11.78125 -7.859375 C 11.78125 -5.109375 11.328125 -3.070312 10.421875 -1.75 C 9.523438 -0.4375 8.144531 0.21875 6.28125 0.21875 C 4.46875 0.21875 3.097656 -0.460938 2.171875 -1.828125 C 1.253906 -3.191406 0.796875 -5.203125 0.796875 -7.859375 C 0.796875 -10.628906 1.242188 -12.671875 2.140625 -13.984375 C 3.035156 -15.296875 4.414062 -15.953125 6.28125 -15.953125 C 8.082031 -15.953125 9.445312 -15.265625 10.375 -13.890625 C 11.3125 -12.515625 11.78125 -10.503906 11.78125 -7.859375 Z M 4.09375 -7.859375 C 4.09375 -5.929688 4.257812 -4.546875 4.59375 -3.703125 C 4.925781 -2.867188 5.488281 -2.453125 6.28125 -2.453125 C 7.050781 -2.453125 7.609375 -2.875 7.953125 -3.71875 C 8.296875 -4.570312 8.46875 -5.953125 8.46875 -7.859375 C 8.46875 -9.785156 8.289062 -11.164062 7.9375 -12 C 7.59375 -12.84375 7.039062 -13.265625 6.28125 -13.265625 C 5.5 -13.265625 4.9375 -12.84375 4.59375 -12 C 4.257812 -11.164062 4.09375 -9.785156 4.09375 -7.859375 Z M 4.09375 -7.859375 "/></g></g></g><g fill="#0097b2" fill-opacity="1"><g transform="translate(252.590949, 307.761191)"><g><path d="M 8.640625 -13.15625 C 7.390625 -13.15625 6.421875 -12.679688 5.734375 -11.734375 C 5.046875 -10.796875 4.703125 -9.488281 4.703125 -7.8125 C 4.703125 -4.3125 6.015625 -2.5625 8.640625 -2.5625 C 9.742188 -2.5625 11.082031 -2.835938 12.65625 -3.390625 L 12.65625 -0.59375 C 11.363281 -0.0507812 9.925781 0.21875 8.34375 0.21875 C 6.050781 0.21875 4.300781 -0.472656 3.09375 -1.859375 C 1.882812 -3.242188 1.28125 -5.234375 1.28125 -7.828125 C 1.28125 -9.460938 1.578125 -10.894531 2.171875 -12.125 C 2.765625 -13.351562 3.617188 -14.296875 4.734375 -14.953125 C 5.847656 -15.609375 7.148438 -15.9375 8.640625 -15.9375 C 10.171875 -15.9375 11.707031 -15.566406 13.25 -14.828125 L 12.171875 -12.125 C 11.585938 -12.394531 10.992188 -12.632812 10.390625 -12.84375 C 9.796875 -13.050781 9.210938 -13.15625 8.640625 -13.15625 Z M 8.640625 -13.15625 "/></g></g></g><g fill="#0097b2" fill-opacity="1"><g transform="translate(266.607019, 307.761191)"><g><path d="M 8.640625 -13.15625 C 7.390625 -13.15625 6.421875 -12.679688 5.734375 -11.734375 C 5.046875 -10.796875 4.703125 -9.488281 4.703125 -7.8125 C 4.703125 -4.3125 6.015625 -2.5625 8.640625 -2.5625 C 9.742188 -2.5625 11.082031 -2.835938 12.65625 -3.390625 L 12.65625 -0.59375 C 11.363281 -0.0507812 9.925781 0.21875 8.34375 0.21875 C 6.050781 0.21875 4.300781 -0.472656 3.09375 -1.859375 C 1.882812 -3.242188 1.28125 -5.234375 1.28125 -7.828125 C 1.28125 -9.460938 1.578125 -10.894531 2.171875 -12.125 C 2.765625 -13.351562 3.617188 -14.296875 4.734375 -14.953125 C 5.847656 -15.609375 7.148438 -15.9375 8.640625 -15.9375 C 10.171875 -15.9375 11.707031 -15.566406 13.25 -14.828125 L 12.171875 -12.125 C 11.585938 -12.394531 10.992188 -12.632812 10.390625 -12.84375 C 9.796875 -13.050781 9.210938 -13.15625 8.640625 -13.15625 Z M 8.640625 -13.15625 "/></g></g></g><g fill="#0097b2" fill-opacity="1"><g transform="translate(280.623089, 307.761191)"><g><path d="M 11.78125 -7.859375 C 11.78125 -5.109375 11.328125 -3.070312 10.421875 -1.75 C 9.523438 -0.4375 8.144531 0.21875 6.28125 0.21875 C 4.46875 0.21875 3.097656 -0.460938 2.171875 -1.828125 C 1.253906 -3.191406 0.796875 -5.203125 0.796875 -7.859375 C 0.796875 -10.628906 1.242188 -12.671875 2.140625 -13.984375 C 3.035156 -15.296875 4.414062 -15.953125 6.28125 -15.953125 C 8.082031 -15.953125 9.445312 -15.265625 10.375 -13.890625 C 11.3125 -12.515625 11.78125 -10.503906 11.78125 -7.859375 Z M 4.09375 -7.859375 C 4.09375 -5.929688 4.257812 -4.546875 4.59375 -3.703125 C 4.925781 -2.867188 5.488281 -2.453125 6.28125 -2.453125 C 7.050781 -2.453125 7.609375 -2.875 7.953125 -3.71875 C 8.296875 -4.570312 8.46875 -5.953125 8.46875 -7.859375 C 8.46875 -9.785156 8.289062 -11.164062 7.9375 -12 C 7.59375 -12.84375 7.039062 -13.265625 6.28125 -13.265625 C 5.5 -13.265625 4.9375 -12.84375 4.59375 -12 C 4.257812 -11.164062 4.09375 -9.785156 4.09375 -7.859375 Z M 4.09375 -7.859375 "/></g></g></g><g fill="#0097b2" fill-opacity="1"><g transform="translate(293.178482, 307.761191)"><g><path d="M 15 -8 C 15 -5.414062 14.265625 -3.4375 12.796875 -2.0625 C 11.328125 -0.6875 9.203125 0 6.421875 0 L 1.984375 0 L 1.984375 -15.703125 L 6.90625 -15.703125 C 9.46875 -15.703125 11.457031 -15.023438 12.875 -13.671875 C 14.289062 -12.316406 15 -10.425781 15 -8 Z M 11.546875 -7.921875 C 11.546875 -11.296875 10.054688 -12.984375 7.078125 -12.984375 L 5.3125 -12.984375 L 5.3125 -2.75 L 6.734375 -2.75 C 9.941406 -2.75 11.546875 -4.472656 11.546875 -7.921875 Z M 11.546875 -7.921875 "/></g></g></g><g fill="#0097b2" fill-opacity="1"><g transform="translate(309.460745, 307.761191)"><g><path d="M 5.25 0 L 1.984375 0 L 1.984375 -15.703125 L 10.984375 -15.703125 L 10.984375 -12.984375 L 5.25 -12.984375 L 5.25 -8.921875 L 10.578125 -8.921875 L 10.578125 -6.203125 L 5.25 -6.203125 Z M 5.25 0 "/></g></g></g></svg>